<svg xmlns="http://www.w3.org/2000/svg" width="55" height="85" viewBox="0 0 55 85">
  <path d="M 22,4 L 21,5 L 20,5 L 19,6 L 17,6 L 16,7 L 15,7 L 12,10 L 11,10 L 8,13 L 8,14 L 6,16 L 6,17 L 5,18 L 5,19 L 4,20 L 4,22 L 3,23 L 3,34 L 4,35 L 4,36 L 5,37 L 5,38 L 6,39 L 6,40 L 7,41 L 7,42 L 8,43 L 8,44 L 9,45 L 9,46 L 10,47 L 10,49 L 11,50 L 11,52 L 12,53 L 12,56 L 11,57 L 11,61 L 15,65 L 31,65 L 32,66 L 31,67 L 18,67 L 17,68 L 14,68 L 12,70 L 12,72 L 11,73 L 11,74 L 12,75 L 12,76 L 14,78 L 16,78 L 17,79 L 30,79 L 31,80 L 35,80 L 35,79 L 37,77 L 37,76 L 36,75 L 36,74 L 35,73 L 33,73 L 32,72 L 33,71 L 35,71 L 36,70 L 36,68 L 37,67 L 37,65 L 36,64 L 36,63 L 35,62 L 34,62 L 33,61 L 31,61 L 29,59 L 30,58 L 30,37 L 29,36 L 30,35 L 30,34 L 31,33 L 31,30 L 29,28 L 30,27 L 31,27 L 31,25 L 32,24 L 33,25 L 33,23 L 34,22 L 36,22 L 36,21 L 34,19 L 33,19 L 32,18 L 29,18 L 28,17 L 26,17 L 25,18 L 23,18 L 22,19 L 20,19 L 19,20 L 19,21 L 21,21 L 22,22 L 21,23 L 21,24 L 23,24 L 24,25 L 23,26 L 25,28 L 23,30 L 23,33 L 25,35 L 25,60 L 24,61 L 17,61 L 16,60 L 16,51 L 15,50 L 15,47 L 14,46 L 14,45 L 13,44 L 13,43 L 12,42 L 12,41 L 11,40 L 11,39 L 10,38 L 10,37 L 9,36 L 9,34 L 8,33 L 8,31 L 7,30 L 7,27 L 8,26 L 8,23 L 9,22 L 9,20 L 11,18 L 11,17 L 16,12 L 17,12 L 18,11 L 19,11 L 20,10 L 22,10 L 23,9 L 31,9 L 32,10 L 35,10 L 37,12 L 38,12 L 41,15 L 42,15 L 43,16 L 43,17 L 45,19 L 45,21 L 46,22 L 46,25 L 47,26 L 47,30 L 46,31 L 46,34 L 45,35 L 45,36 L 44,37 L 44,38 L 43,39 L 43,40 L 42,41 L 42,43 L 40,45 L 40,47 L 39,48 L 39,50 L 38,51 L 38,53 L 37,54 L 37,55 L 36,56 L 36,58 L 39,61 L 41,61 L 42,60 L 43,60 L 44,59 L 44,55 L 43,54 L 43,50 L 44,49 L 44,48 L 45,47 L 45,46 L 46,45 L 46,43 L 48,41 L 48,40 L 49,39 L 49,37 L 51,35 L 51,22 L 50,21 L 50,20 L 49,19 L 49,17 L 47,15 L 47,14 L 42,9 L 41,9 L 39,7 L 38,7 L 37,6 L 35,6 L 33,4 Z" fill="none" stroke="#00bfff" stroke-width="2"/>
</svg>